<?xml version="1.0" encoding="utf-8"?>
<!-- Generator: Adobe Illustrator 23.0.1, SVG Export Plug-In . SVG Version: 6.00 Build 0)  -->
<svg version="1.1" id="Layer_1" xmlns="http://www.w3.org/2000/svg" xmlns:xlink="http://www.w3.org/1999/xlink" x="0px" y="0px"
	 viewBox="0 0 500 500" style="enable-background:new 0 0 500 500;" xml:space="preserve">
<style type="text/css">
	.st0{fill:#152C80;}
	.st1{fill:#FFFFFF;}
</style>
<path class="st0" d="M115,25h270c49.7,0,90,40.3,90,90v270c0,49.7-40.3,90-90,90H115c-49.7,0-90-40.3-90-90V115
	C25,65.3,65.3,25,115,25z"/>
<path class="st1" d="M203.9,475h99.9V373.3c0-15.1-13.4-27.3-30-27.3h-39.9c-16.6,0-30,12.2-30,27.3V475z"/>
<ellipse class="st1" cx="253.9" cy="229.1" rx="164.1" ry="122.9"/>
<rect x="25" y="25" class="st0" width="81.3" height="95.5"/>
<path class="st1" d="M134.7,94c10-5.6,55.1,32.9,55.1,32.9L134,159.5C134.1,159.5,124.5,99.8,134.7,94z"/>
<path class="st1" d="M375.1,94c-10-5.6-55.1,32.9-55.1,32.9l55.8,32.6C375.8,159.5,385.4,99.8,375.1,94z"/>
<path class="st1" d="M203.9,405.4c0,0-31.6,1.9-41.6-1.9c-10.1-3.9-14.7-5.8-19-16.6c-4.3-10.8-4.6-16.6-11.2-16.6
	s3.1,28.6,9.7,32.9c6.6,4.3,11.2,8.5,21.3,10.5c10.1,1.9,40.9,3.1,40.9,3.1V405.4z"/>
</svg>
