<?xml version="1.0" encoding="utf-8"?>
<!-- Generator: Adobe Illustrator 23.0.1, SVG Export Plug-In . SVG Version: 6.00 Build 0)  -->
<svg version="1.1" id="Layer_1" xmlns="http://www.w3.org/2000/svg" xmlns:xlink="http://www.w3.org/1999/xlink" x="0px" y="0px"
	 viewBox="0 0 500 500" style="enable-background:new 0 0 500 500;" xml:space="preserve">
<style type="text/css">
	.st0{fill:#64D8CB;}
</style>
<rect x="26.3" y="146.2" transform="matrix(0.7071 -0.7071 0.7071 0.7071 -67.6668 154.0538)" class="st0" width="251.6" height="25"/>
<rect x="335.4" y="32.8" transform="matrix(0.7071 -0.7071 0.7071 0.7071 -10.2638 292.4436)" class="st0" width="25" height="251.6"/>
<circle class="st0" cx="106" cy="275.9" r="12.5"/>
<ellipse transform="matrix(0.9985 -5.530044e-02 5.530044e-02 0.9985 -13.6405 3.8331)" class="st0" cx="62.4" cy="248.4" rx="12.5" ry="12.5"/>
<circle class="st0" cx="436.9" cy="247.6" r="12.5"/>
<path class="st0" d="M118.6,275.9v150h-12.5c-6.9,0-12.5-5.6-12.5-12.5V275.9H118.6z"/>
<circle class="st0" cx="394" cy="275.9" r="12.5"/>
<path class="st0" d="M406.5,275.9v137.5c0,6.9-5.6,12.5-12.5,12.5h-12.5V275.9H406.5z"/>
<path class="st0" d="M406.5,400.9v12.5c0,6.9-5.6,12.5-12.5,12.5H106c-6.9,0-12.5-5.6-12.5-12.5v-12.5H406.5z"/>
<path class="st0" d="M232.2,60.9c9.1-9.1,26.3-9.3,35.5-0.1c9.2,9.2-6.7,17.7-17.7,17.7C239.1,78.4,223.1,70,232.2,60.9z"/>
<path class="st0" d="M334.1,96.2H352c2.8,0,5,2.2,5,5v48.9c0,2.8-2.2,5-5,5h-17.8c-2.8,0-5-2.2-5-5v-48.9
	C329.1,98.5,331.4,96.2,334.1,96.2z"/>
<g>
	<path class="st0" d="M172.9,226h17.8c2.8,0,5,2.2,5,5v18.3c0,2.8-2.2,5-5,5h-17.8c-2.8,0-5-2.2-5-5V231
		C167.9,228.2,170.1,226,172.9,226z"/>
	<path class="st0" d="M206.7,226h17.8c2.8,0,5,2.2,5,5v18.3c0,2.8-2.2,5-5,5h-17.8c-2.8,0-5-2.2-5-5V231
		C201.7,228.2,203.9,226,206.7,226z"/>
	<path class="st0" d="M206.7,260.1h17.8c2.8,0,5,2.2,5,5v18.3c0,2.8-2.2,5-5,5h-17.8c-2.8,0-5-2.2-5-5v-18.3
		C201.7,262.4,203.9,260.1,206.7,260.1z"/>
	<path class="st0" d="M172.9,260.1h17.8c2.8,0,5,2.2,5,5v18.3c0,2.8-2.2,5-5,5h-17.8c-2.8,0-5-2.2-5-5v-18.3
		C167.9,262.4,170.1,260.1,172.9,260.1z"/>
</g>
</svg>
