<?xml version="1.0" encoding="utf-8"?>
<!-- Generator: Adobe Illustrator 23.0.1, SVG Export Plug-In . SVG Version: 6.00 Build 0)  -->
<svg version="1.1" id="Layer_1" xmlns="http://www.w3.org/2000/svg" xmlns:xlink="http://www.w3.org/1999/xlink" x="0px" y="0px"
	 viewBox="0 0 500 500" enable-background="new 0 0 500 500" xml:space="preserve">
<path fill="#152C80" d="M115,25h270c49.71,0,90,40.29,90,90v270c0,49.71-40.29,90-90,90H115c-49.71,0-90-40.29-90-90V115
	C25,65.29,65.29,25,115,25z"/>
<path fill="none" stroke="#FFFFFF" stroke-width="20" stroke-miterlimit="10" d="M101.23,160.68h297.55c2.76,0,5,2.24,5,5v168.65
	c0,2.76-2.24,5-5,5H101.23c-2.76,0-5-2.24-5-5V165.68C96.23,162.92,98.46,160.68,101.23,160.68z"/>
<rect x="201.23" y="249.17" fill="#FFFFFF" width="97.54" height="14.07"/>
<polygon fill="#FFFFFF" points="201.23,262.85 96.23,170.62 107.55,160.68 212.55,252.9 "/>
<polygon fill="#FFFFFF" points="298.7,262.91 403.77,170.62 392.45,160.68 287.37,252.97 "/>
</svg>
