<?xml version="1.0" encoding="utf-8"?>
<!-- Generator: Adobe Illustrator 23.0.1, SVG Export Plug-In . SVG Version: 6.00 Build 0)  -->
<svg version="1.1" id="Layer_1" xmlns="http://www.w3.org/2000/svg" xmlns:xlink="http://www.w3.org/1999/xlink" x="0px" y="0px"
	 viewBox="0 0 500 500" style="enable-background:new 0 0 500 500;" xml:space="preserve">
<style type="text/css">
	.st0{fill:#152C80;}
	.st1{fill:none;stroke:#FFFFFF;stroke-width:20;stroke-miterlimit:10;}
	.st2{fill:#FFFFFF;}
</style>
<path class="st0" d="M115,25h270c49.7,0,90,40.3,90,90v270c0,49.7-40.3,90-90,90H115c-49.7,0-90-40.3-90-90V115
	C25,65.3,65.3,25,115,25z"/>
<path class="st1" d="M101.2,160.7h297.5c2.8,0,5,2.2,5,5v168.6c0,2.8-2.2,5-5,5H101.2c-2.8,0-5-2.2-5-5V165.7
	C96.2,162.9,98.5,160.7,101.2,160.7z"/>
<rect x="201.2" y="249.2" class="st2" width="97.5" height="14.1"/>
<polygon class="st2" points="201.2,262.9 96.2,170.6 107.6,160.7 212.6,252.9 "/>
<polygon class="st2" points="298.7,262.9 403.8,170.6 392.5,160.7 287.4,253 "/>
<rect x="25" y="25" class="st0" width="90" height="90"/>
</svg>
