<?xml version="1.0" encoding="utf-8"?>
<!-- Generator: Adobe Illustrator 23.0.1, SVG Export Plug-In . SVG Version: 6.00 Build 0)  -->
<svg version="1.1" id="Layer_1" xmlns="http://www.w3.org/2000/svg" xmlns:xlink="http://www.w3.org/1999/xlink" x="0px" y="0px"
	 viewBox="0 0 150 150" style="enable-background:new 0 0 150 150;" xml:space="preserve">
<style type="text/css">
	.st0{fill:#E6E6E6;}
	.st1{fill:#9E4A00;}
	.st2{fill:#004F65;}
	.st3{fill:#00394B;}
	.st4{fill:#005F6E;}
	.st5{fill:#FFFFFF;}
	.st6{fill:#309257;}
	.st7{fill:#E3EDEF;}
	.st8{fill:#231F20;}
</style>
<circle class="st0" cx="75" cy="75" r="75"/>
<g>
	<path class="st1" d="M119.5,32.2c-1.5,6.5-4.3,11.4-5.5,13.1c-0.2,0.4-0.7,0.5-1.1,0.1c-2.6-2-12.2-10-12.8-13.5
		c0-0.2,0.1-0.5,0.2-0.7c3.6-2.7,5.8-4.3,7.9-5.8c0.5-0.4,1.1,0,1.1,0.6V32c0,0.5,0.4,0.7,0.8,0.7l8.5-1.4
		C119.1,31.3,119.6,31.6,119.5,32.2z"/>
	<path class="st1" d="M55.2,30.8c-1.5,3.4-10.2,9.5-13.3,11.5c-0.6,0.4-1.4,0.2-1.8-0.5c-1.8-3.5-6.3-14.4-3.5-25.6
		c0.2-0.8,1.2-1.2,1.9-0.6c8.6,6.8,9,7.3,16.3,13.7C55.2,29.8,55.3,30.3,55.2,30.8z"/>
	<ellipse class="st2" cx="75.1" cy="77.5" rx="50.5" ry="52.2"/>
	<path class="st3" d="M77.6,128c0,0.2-0.1,0.4-0.4,0.4c0,0,0,0-0.1,0c-0.4,0-0.9,0-1.6,0l0,0c-0.7,0-1.5,0-2.5,0
		c-7.3,0-21.6-0.5-28.4-2.9c-9.4-3.5-14.7-19.6-22-25.5c-5-3.9-6.5-7.9-6.1-11.4c0.7-2.1,1.9-4,3.3-5.6c1.3-1.6,3.9-1.3,4.8,0.5
		c0.4,0.7,0.6,1.4,0.7,1.9c-0.5,0.7-1.1,1.1-0.2,1.8c0.7,0.7,2.6,1.8,6.8,3.8c12.4,6,35,6.7,43.2,6.8c0.1,0,0.2,0,0.4,0l0,0
		c1.1,0.1,1.8,0.9,2,1.9c0,0.2,0.1,0.4,0.1,0.6C77.7,107.3,77.6,128,77.6,128z"/>
	<path class="st3" d="M134.1,92.8c-0.7,2.3-2.5,4.7-5.6,7.2c-7.3,5.9-12.6,22-22,25.5c-7,2.7-22.3,2.9-29.2,2.9c-0.6,0-1.2,0-1.6,0
		c-0.8,0-1.4,0-1.6,0c-0.2,0-0.4-0.1-0.4-0.4c0,0-0.1-19.6-0.1-27.2c0-0.2,0-0.4,0-0.6c0-0.2,0-0.4,0.1-0.6c0.2-0.9,1.1-1.8,2.1-1.9
		l0,0c0.1,0,0.2,0,0.4,0c8.1-0.1,30.8-0.8,43.2-6.8c3.4-1.6,5.3-2.6,6.3-3.3c2.1-1.5-0.1-1.4-0.2-3.5c0.1-0.2,0.1-0.4,0.2-0.6
		c0.9-1.9,3.5-2.1,4.8-0.5C132.5,85.6,134.4,89,134.1,92.8z"/>
	<path class="st4" d="M77.1,128.3L77.1,128.3c0,1.1,0,1.6,0,1.6c0,0.2-0.1,0.4-0.4,0.4c-0.4,0-0.8,0-1.6,0h-0.2
		c-6,0-23.1-0.1-30.9-2.9c-9.4-3.5-14.7-19.6-22-25.5c-6.1-4.7-6.9-9.3-5.6-13.3c0.7-2.1,1.9-4,3.3-5.6c1.3-1.6,3.9-1.3,4.8,0.5
		c0.4,0.7,0.6,1.4,0.7,1.9c0.1,0.8,0,1.3-0.2,1.8c-0.9,1.5-2.8,1.3,6.5,5.8c11.9,5.6,32.9,6.6,41.9,6.7c0.5,0,0.8,0,1.3,0
		c0.1,0,0.2,0,0.4,0l0,0c1.2,0.2,2.1,1.2,2.1,2.5C77.2,108,77.2,123.3,77.1,128.3z"/>
	<path class="st1" d="M30.9,78.1c0.4-0.8,1.5-0.8,1.9-0.1c2.8,5.3,9.2,18.5,4.2,18.1c-6.1-0.5-15.3-5.5-15.4-7.9
		C21.6,86.2,28.2,84.1,30.9,78.1z"/>
	<path class="st4" d="M134.1,92.8c-0.4,2.9-2,6-6.1,9.2c-7.3,5.9-12.6,22-22,25.5c-7.6,2.8-24.8,3.1-30.9,2.9H75c-0.8,0-1.4,0-1.8,0
		c-0.2,0-0.4-0.1-0.4-0.4c0,0,0-0.6,0-1.5c0-4.9-0.1-20.2-0.1-26.3c0-0.5,0.1-0.9,0.5-1.4c0.4-0.6,0.9-0.9,1.8-1.1l0,0
		c0.1,0,0.2,0,0.4,0c0.6,0,1.3,0,2.1,0c9.4-0.2,29.6-1.2,41.1-6.7c8.3-4,7.6-4.1,6.7-5.3c-0.5-0.6-1.1-1.5-0.2-3.5
		c0.1-0.2,0.1-0.4,0.2-0.6c0.9-1.9,3.5-2.1,4.8-0.5C132.5,85.6,134.4,89,134.1,92.8z"/>
	<path class="st1" d="M118.8,78.1c-0.4-0.8-1.5-0.8-1.9-0.1c-2.8,5.3-9.2,18.5-4.2,18.1c6.1-0.5,15.3-5.5,15.4-7.9
		C128.1,86.2,121.5,84.1,118.8,78.1z"/>
	<path class="st5" d="M68.9,70.3c-0.2,8.2-1.4,15.1-1.4,15.1L42,75c0,0-0.8-2.9-1.2-7c-0.4-4-0.4-8.9,1.1-13.4
		c1.6-5.3,5.4-9.7,12.9-10.8c6-0.8,9.6,2.6,11.6,7.6C68.5,56.8,69,64,68.9,70.3z"/>
	<path class="st5" d="M106.8,68c-0.4,4.1-1.2,7-1.2,7L80.3,85.6c0,0-1.2-6.9-1.4-15.1c-0.1-6.5,0.4-13.6,2.5-18.9
		c2-5,5.6-8.5,11.6-7.6c7.5,1.1,11.2,5.5,12.9,10.8C107.2,59.1,107.2,64,106.8,68z"/>
	<path class="st6" d="M68.9,70.3c-2.9,3.9-7.7,6.3-13.3,6.3C49.1,76.7,43.4,73,41,68c-0.4-4-0.4-8.9,1.1-13.4
		c2.7-4.1,7.7-6.9,13.6-6.9c4.2,0,8,1.4,10.8,3.8C68.5,56.8,69,64,68.9,70.3z"/>
	<path class="st7" d="M50.1,54.5c-1.4,2.9-3.5,4.8-4.6,4.2c-1.1-0.5-0.7-3.3,0.8-6.2C47.9,49.6,51.5,51.7,50.1,54.5z"/>
	<path class="st7" d="M43.8,61c-1.2-0.4-1.4-2.9-0.6-5.9C44,52.3,45,61.3,43.8,61z"/>
	<path class="st6" d="M106.8,68c-2.5,5.2-8.1,8.7-14.7,8.7c-5.5,0-10.3-2.5-13.3-6.3c-0.1-6.5,0.4-13.6,2.5-18.9
		c2.8-2.3,6.7-3.8,10.8-3.8c5.8,0,10.9,2.8,13.7,6.9C107.2,59.1,107.2,64,106.8,68z"/>
	<path class="st7" d="M97.7,54.5c1.4,2.9,3.5,4.8,4.6,4.2c1.1-0.5,0.7-3.3-0.8-6.2C99.9,49.7,96.1,51.7,97.7,54.5z"/>
	<path class="st7" d="M104,61c1.2-0.4,1.4-2.9,0.6-5.9C103.8,52.2,102.8,61.3,104,61z"/>
	<path d="M72.3,86l-0.6,2.1c-0.2,0.6-0.8,0.9-1.4,0.8l0,0c-0.6-0.2-0.9-0.8-0.8-1.4l0.6-2.1c0.2-0.6,0.8-0.9,1.4-0.8l0,0
		C72.2,84.7,72.5,85.4,72.3,86z"/>
	<path d="M75.9,86.2l0.6,2.1c0.2,0.6,0.8,0.9,1.4,0.8l0,0c0.6-0.2,0.9-0.8,0.8-1.4l-0.6-2.1c-0.2-0.6-0.8-0.9-1.4-0.8l0,0
		C76.2,84.9,75.7,85.5,75.9,86.2z"/>
	<ellipse class="st8" cx="54.1" cy="62.2" rx="4.8" ry="4.5"/>
	<ellipse class="st8" cx="93" cy="62.2" rx="4.8" ry="4.5"/>
</g>
</svg>
