<?xml version="1.0" encoding="utf-8"?>
<!-- Generator: Adobe Illustrator 23.0.1, SVG Export Plug-In . SVG Version: 6.00 Build 0)  -->
<svg version="1.1" xmlns="http://www.w3.org/2000/svg" xmlns:xlink="http://www.w3.org/1999/xlink" x="0px" y="0px"
	 viewBox="0 0 150 300" style="enable-background:new 0 0 150 300;" xml:space="preserve">
<style type="text/css">
	.st0{fill:#2E2E30;}
	.st1{fill:#E6E6E6;stroke:#000000;stroke-miterlimit:10;}
	.st2{fill:#4D4D4D;}
	.st3{fill:#5D2906;}
	.st4{fill:#86401A;}
	.st5{fill:#00394B;}
	.st6{fill:#9E4A00;}
	.st7{fill:#004F65;}
	.st8{fill:#B9D76D;}
	.st9{fill:#005F6E;}
	.st10{fill:#FFFFFF;}
	.st11{fill:#309257;}
	.st12{fill:#E3EDEF;}
	.st13{fill:#231F20;}
	.st14{fill:#008C84;}
	.st15{fill:#0E2609;}
	.st16{fill:#083600;}
	.st17{fill:none;stroke:#000000;stroke-miterlimit:10;}
	.st18{fill:#001100;}
	.st19{fill:#491A00;}
	.st20{fill:#434345;}
	.st21{fill:#1A170C;}
</style>
<g id="Rocket_ship">
	<path class="st0" d="M73.4,216l-18.5,71.2c-0.4,1.4,0.7,2.8,2.1,2.8h37c1.4,0,2.5-1.4,2.1-2.8L77.6,216
		C77.1,213.8,73.9,213.8,73.4,216z"/>
	<path class="st0" d="M118.2,215.9l-18.5,71.2c-0.4,1.4,0.7,2.8,2.1,2.8h37c1.4,0,2.5-1.4,2.1-2.8l-18.5-71.2
		C121.9,213.7,118.8,213.7,118.2,215.9z"/>
	<path class="st0" d="M29.6,215.9l-18.5,71.2c-0.4,1.4,0.7,2.8,2.1,2.8h37c1.4,0,2.5-1.4,2.1-2.8l-18.5-71.2
		C33.3,213.7,30.2,213.7,29.6,215.9z"/>
	<g>
		<path class="st1" d="M75,17.5c-24.1,0-65,46.9-65,94.9s0,140.6,0,140.6h65"/>
		<path class="st1" d="M75,17.5c24.1,0,65,46.9,65,94.9s0,140.6,0,140.6H75"/>
	</g>
	<path class="st2" d="M25.7,235H122c0,0,28.3-195.8-47.6-196.1C2.9,38.5,25.7,235,25.7,235z"/>
	<g>
		<path class="st3" d="M126,177.3c-4.3,6.6-8.2,12-8.1,13.5c0.2,1.5,3,3.4,4.1,2.3C123.2,192.2,126,177.3,126,177.3"/>
		<path class="st3" d="M130.7,179.6c-6.6,4.4-12.3,7.8-12.8,9.4c-0.4,1.6,1.8,4.6,3.4,4.1C122.8,192.6,130.7,179.6,130.7,179.6"/>
		<path class="st4" d="M121.7,177.4c-2.6,7.5-5,13.6-4.6,15.1c0.4,1.5,3.6,2.6,4.4,1.3C122.2,192.6,121.7,177.4,121.7,177.4"/>
		<path class="st4" d="M131.6,183.4c-7.3,2.9-13.6,5-14.4,6.4s0.4,4.4,1.9,4.2C120.7,193.8,131.6,183.4,131.6,183.4"/>
		<path class="st5" d="M77.2,203.3c-8.1,0.8-11.2,4.9-8.6,8.1c2.6,3.3,8.8,5.5,13,3.3c4.2-2.2,23.7-8.2,24.3-11.2
			c0.6-2.9,0.2-3.7-2.4-4.4C100.7,198.5,77.2,203.3,77.2,203.3z"/>
		<path class="st5" d="M58.3,229.2c-5.5-1.6-8.6-7.7-7-13.7c1.8-6,7.6-9.4,13.2-7.8C70.1,209.4,63.8,230.8,58.3,229.2z"/>
		<path class="st5" d="M85.7,229.1c5.5-1.7,8.6-7.8,6.9-13.7c-1.8-6-7.6-9.4-13.3-7.7S80.2,230.8,85.7,229.1z"/>
		<path class="st6" d="M42.3,182.8c0.3,0.7,0,2.5-0.1,3.2c0,0.2-0.2,0.2-0.3,0.2c-0.7-0.3-2.8-1.3-3.9-3.4c-0.1-0.2,0-0.3,0.2-0.3
			c2,0,2.1,0,3.9,0.2C42.2,182.6,42.3,182.7,42.3,182.8z"/>
		<path class="st5" d="M101.9,182.4c-0.5-0.1-1.1-0.4-1.6-0.9l-1.8-2c-0.8-0.8-0.9-1.9-0.5-2.7l0,0c1.6-1,3.3-2.2,5-3.6
			c1.8-1.5,3.3-3,4.5-4.4l0,0c0.6,0,1.3,0.3,1.8,0.9l1.8,2c0.6,0.7,0.8,1.5,0.7,2.2c-1.6,1-3.4,2.3-5,3.7
			C104.9,179.2,103.2,180.9,101.9,182.4z"/>
		<path class="st5" d="M46,199.7c-0.5,0.3-1.2,0.4-1.8,0.3l-2.7-0.3c-1.2-0.2-2.1-0.8-2.3-1.6l0,0c0.5-1.8,0.9-3.8,1.3-6
			c0.3-2.3,0.4-4.4,0.3-6.3l0,0c0.5-0.4,1.3-0.6,2.1-0.5l2.7,0.3c0.9,0.1,1.7,0.6,2.1,1.2c-0.6,1.8-1,3.9-1.3,6.1
			C46,195.4,45.9,197.7,46,199.7z"/>
		<path class="st5" d="M104.6,175c0.3,0.7,0.3,1.5-0.1,2.3l-1.3,2.8c-0.6,1.2-1.9,1.8-3.1,1.5l0,0c-2.4-1.7-5.2-3.4-8.3-5
			c-3.2-1.7-6.3-3.1-9.1-4.2l0,0c-0.4-0.8-0.4-1.8,0-2.6l1.3-2.8c0.5-0.9,1.4-1.5,2.4-1.6c2.4,1.7,5.4,3.4,8.5,5.1
			C98.3,172.4,101.7,174,104.6,175z"/>
		<path class="st5" d="M47.3,188.3c-0.8,0.3-1.5,0.2-2.3-0.3l-2.7-1.5c-1.2-0.7-1.7-2-1.3-3.2l0,0c1.8-2.3,3.6-5,5.5-8
			c1.8-3.1,3.4-6.1,4.7-8.8l0,0c0.8-0.3,1.8-0.3,2.6,0.2l2.7,1.5c0.9,0.5,1.4,1.5,1.4,2.5c-1.8,2.3-3.8,5.1-5.6,8.1
			C50.2,182.2,48.6,185.4,47.3,188.3z"/>
		<g>
			<ellipse class="st7" cx="72.2" cy="196.4" rx="25.8" ry="20.7"/>
			<path class="st7" d="M98.1,196.4H46.5c0,0,1.8-17.6,11.4-32s20.1-16.4,28.9,0C97.2,182.2,98.1,196.4,98.1,196.4z"/>
		</g>
		<path class="st6" d="M104,94.2c-1.1,4.6-3.1,8.1-3.9,9.4c-0.2,0.3-0.5,0.3-0.8,0.1c-1.8-1.4-8.7-7.1-9.1-9.7
			c0-0.2,0.1-0.3,0.2-0.5c2.6-1.9,4.1-3.1,5.6-4.1c0.3-0.3,0.8,0,0.8,0.4v4.2c0,0.3,0.3,0.5,0.6,0.5l6-1
			C103.7,93.6,104,93.8,104,94.2z"/>
		<path class="st6" d="M58,93.2c-1.1,2.4-7.3,6.8-9.5,8.2c-0.4,0.3-1,0.2-1.3-0.3c-1.3-2.5-4.5-10.3-2.5-18.3
			c0.2-0.6,0.8-0.8,1.3-0.4c6.1,4.9,6.5,5.2,11.7,9.8C58,92.6,58,92.9,58,93.2z"/>
		<path class="st6" d="M99.9,181.3c0.5-0.5,2.3-0.9,3-1c0.2,0,0.3,0.1,0.3,0.3c-0.1,0.8-0.3,3-1.8,4.9c-0.1,0.2-0.3,0.1-0.3,0
			c-0.7-1.8-0.8-2-1.3-3.7C99.8,181.5,99.8,181.4,99.9,181.3z"/>
		<path class="st6" d="M99.9,181.3c0.5-0.5,2.3-0.9,3-1c0.2,0,0.3,0.1,0.3,0.3c-0.1,0.8-0.3,3-1.8,4.9c-0.1,0.2-0.3,0.1-0.3,0
			c-0.7-1.8-0.8-2-1.3-3.7C99.8,181.5,99.8,181.4,99.9,181.3z"/>
		<g>
			<ellipse class="st8" cx="72.1" cy="194.3" rx="13.5" ry="15.8"/>
			<path class="st8" d="M85.6,194.3h-27c0,0,1-13.3,6-24.3c5-11,10.5-12.5,15.1,0C85.1,183.4,85.6,194.3,85.6,194.3z"/>
		</g>
		<ellipse class="st7" cx="72.2" cy="126.6" rx="36.1" ry="37.3"/>
		<path class="st5" d="M74,162.7c0,0.2-0.1,0.3-0.3,0.3c0,0,0,0-0.1,0c-0.3,0-0.7,0-1.2,0l0,0c-0.5,0-1.1,0-1.8,0
			c-5.2,0-15.4-0.3-20.3-2.1c-6.7-2.5-10.5-14-15.7-18.2c-3.6-2.8-4.6-5.6-4.4-8.1c0.5-1.5,1.3-2.9,2.3-4c0.9-1.2,2.8-0.9,3.4,0.3
			c0.3,0.5,0.4,1,0.5,1.3c-0.3,0.5-0.8,0.8-0.2,1.3c0.5,0.5,1.8,1.3,4.9,2.7c8.9,4.3,25,4.8,30.9,4.9c0.1,0,0.2,0,0.3,0l0,0
			c0.8,0.1,1.3,0.7,1.4,1.3c0,0.2,0.1,0.3,0.1,0.4C74.1,147.9,74,162.7,74,162.7z"/>
		<path class="st5" d="M114.4,137.5c-0.5,1.7-1.8,3.4-4,5.1c-5.2,4.2-9,15.7-15.7,18.2c-5,1.9-15.9,2.1-20.9,2.1c-0.4,0-0.8,0-1.2,0
			c-0.6,0-1,0-1.2,0s-0.3-0.1-0.3-0.3c0,0-0.1-14-0.1-19.5c0-0.2,0-0.3,0-0.4c0-0.2,0-0.3,0.1-0.4c0.2-0.7,0.8-1.3,1.5-1.3l0,0
			c0.1,0,0.2,0,0.3,0c5.8-0.1,22-0.6,30.9-4.9c2.4-1.2,3.8-1.8,4.5-2.3c1.5-1.1-0.1-1-0.2-2.5c0.1-0.2,0.1-0.3,0.2-0.4
			c0.7-1.3,2.5-1.5,3.4-0.3C113.3,132.4,114.6,134.8,114.4,137.5z"/>
		<path class="st9" d="M73.7,163L73.7,163c0,0.8,0,1.2,0,1.2c0,0.2-0.1,0.3-0.3,0.3c-0.3,0-0.6,0-1.2,0h-0.2
			c-4.3,0-16.5-0.1-22.1-2.1c-6.7-2.5-10.5-14-15.7-18.2c-4.4-3.4-5-6.6-4-9.5c0.5-1.5,1.3-2.9,2.3-4c0.9-1.2,2.8-0.9,3.4,0.3
			c0.3,0.5,0.4,1,0.5,1.3c0.1,0.6,0,0.9-0.2,1.3c-0.7,1.1-2,0.9,4.6,4.1c8.5,4,23.5,4.7,30,4.8c0.3,0,0.6,0,0.9,0c0.1,0,0.2,0,0.3,0
			l0,0c0.8,0.2,1.5,0.8,1.5,1.8C73.7,148.4,73.7,159.4,73.7,163z"/>
		<path class="st6" d="M40.6,127c0.3-0.6,1.1-0.6,1.3-0.1c2,3.8,6.5,13.3,3,12.9c-4.4-0.3-10.9-3.9-11-5.6
			C34,132.8,38.7,131.3,40.6,127z"/>
		<path class="st9" d="M114.4,137.5c-0.3,2.1-1.4,4.3-4.4,6.5c-5.2,4.2-9,15.7-15.7,18.2c-5.5,2-17.7,2.2-22.1,2.1h-0.1
			c-0.6,0-1,0-1.3,0c-0.2,0-0.3-0.1-0.3-0.3c0,0,0-0.4,0-1.1c0-3.5-0.1-14.4-0.1-18.8c0-0.3,0.1-0.7,0.3-1c0.3-0.4,0.7-0.7,1.3-0.8
			l0,0c0.1,0,0.2,0,0.3,0c0.4,0,0.9,0,1.5,0c6.7-0.2,21.1-0.8,29.4-4.8c6-2.9,5.5-2.9,4.8-3.8c-0.3-0.4-0.8-1.1-0.2-2.5
			c0.1-0.2,0.1-0.3,0.2-0.4c0.7-1.3,2.5-1.5,3.4-0.3C113.3,132.4,114.6,134.8,114.4,137.5z"/>
		<path class="st6" d="M103.4,127c-0.3-0.6-1.1-0.6-1.3-0.1c-2,3.8-6.5,13.3-3,12.9c4.4-0.3,10.9-3.9,11-5.6
			C110.1,132.8,105.4,131.3,103.4,127z"/>
		<path class="st10" d="M67.8,121.5c-0.2,5.9-1,10.8-1,10.8l-18.2-7.5c0,0-0.6-2.1-0.8-5c-0.3-2.9-0.3-6.4,0.8-9.6
			c1.2-3.8,3.9-7,9.2-7.7c4.3-0.6,6.9,1.8,8.3,5.5C67.5,111.9,67.9,117,67.8,121.5z"/>
		<path class="st10" d="M94.9,119.8c-0.3,2.9-0.8,5-0.8,5l-18.1,7.6c0,0-0.8-5-1-10.8c-0.1-4.6,0.3-9.7,1.8-13.5
			c1.4-3.6,4-6,8.3-5.5c5.4,0.8,8,3.9,9.2,7.7C95.1,113.4,95.1,117,94.9,119.8z"/>
		<path class="st11" d="M67.8,121.5c-2.1,2.8-5.5,4.5-9.5,4.5c-4.7,0-8.7-2.6-10.5-6.2c-0.3-2.9-0.3-6.4,0.8-9.6
			c1.9-2.9,5.5-5,9.7-5c3,0,5.7,1,7.7,2.7C67.5,111.9,67.9,117,67.8,121.5z"/>
		<path class="st12" d="M54.4,110.2c-1,2.1-2.5,3.4-3.3,3c-0.8-0.3-0.5-2.3,0.6-4.4C52.8,106.7,55.4,108.2,54.4,110.2z"/>
		<path class="st12" d="M49.8,114.8c-0.8-0.3-1-2.1-0.4-4.2C50,108.6,50.7,115,49.8,114.8z"/>
		<path class="st11" d="M94.9,119.8c-1.8,3.7-5.8,6.2-10.5,6.2c-3.9,0-7.4-1.8-9.5-4.5c-0.1-4.6,0.3-9.7,1.8-13.5
			c2-1.7,4.8-2.7,7.7-2.7c4.1,0,7.8,2,9.8,5C95.1,113.4,95.1,117,94.9,119.8z"/>
		<path class="st12" d="M88.3,110.2c1,2.1,2.5,3.4,3.3,3c0.8-0.3,0.5-2.3-0.6-4.4C89.9,106.7,87.3,108.2,88.3,110.2z"/>
		<path class="st12" d="M92.9,114.8c0.8-0.3,1-2.1,0.4-4.2C92.7,108.5,92,115,92.9,114.8z"/>
		<path d="M70.2,132.7l-0.4,1.5c-0.2,0.4-0.6,0.7-1,0.6l0,0c-0.4-0.2-0.7-0.6-0.6-1l0.4-1.5c0.2-0.4,0.6-0.7,1-0.6l0,0
			C70.1,131.7,70.4,132.2,70.2,132.7z"/>
		<path d="M72.8,132.8l0.4,1.5c0.2,0.4,0.6,0.7,1,0.6l0,0c0.4-0.2,0.7-0.6,0.6-1l-0.4-1.5c-0.2-0.4-0.6-0.7-1-0.6l0,0
			C73,131.9,72.7,132.3,72.8,132.8z"/>
		<ellipse class="st13" cx="57.2" cy="115.7" rx="3.4" ry="3.2"/>
		<ellipse class="st13" cx="85" cy="115.7" rx="3.4" ry="3.2"/>
		<path class="st5" d="M103.3,199.9c-2.4,1.7-2.7,4.7,0.3,5c3.1,0.3,9.4-6.6,13.3-8.6c4-1.9,5.7-8-0.8-4.6
			C109.7,195.1,103.3,199.9,103.3,199.9z"/>
		<path class="st8" d="M59.5,194.3h24.2c0,0,1.7-2.6-0.7-4.7c-1.5-1.8-22.1,0-22.1,0L59.5,194.3"/>
		<path class="st14" d="M60.7,192.7h22.2c0,0,2.1-1.3-0.7-4.4c-3.4-2.9-17.3-2.3-20.3,0C59,190.2,60.7,192.7,60.7,192.7"/>
		<path class="st14" d="M60.3,195.2h23.2c0,0,2.2,1.2-0.7,4c-3.5,2.6-18,2.2-21.1,0C58.6,197.6,60.3,195.2,60.3,195.2"/>
		<path class="st14" d="M64.8,203h14.3c0,0,1.3,0.8-0.4,3c-2.2,1.9-11.2,1.6-13,0C63.7,204.7,64.8,203,64.8,203"/>
		<path class="st14" d="M62.7,184.4h19c0,0,1.8-1.1-0.6-3.8c-2.9-2.5-14.9-2-17.4,0C61.2,182.1,62.7,184.4,62.7,184.4"/>
		<path class="st14" d="M64.8,176.7H80c0,0,1.4-0.7-0.4-2.5c-2.3-1.7-11.8-1.3-13.8,0C63.7,175.3,64.8,176.7,64.8,176.7"/>
		<path class="st14" d="M66.9,170.9H78c0,0,1.1-0.5-0.3-1.8c-1.7-1.3-8.6-1-10.1,0C66,169.8,66.9,170.9,66.9,170.9"/>
		<path class="st15" d="M107.8,169l-0.4,0.6c-0.8,1.1-2.3,1.3-3.4,0.4l-3.8-2.9c-1-0.8-1.2-2.3-0.4-3.4l0.4-0.6
			c0.8-1.1,2.3-1.3,3.4-0.4l3.8,2.9C108.5,166.5,108.7,168,107.8,169z"/>
		<path class="st7" d="M107.8,169l-0.4,0.6c-0.8,1.1-2.3,1.3-3.4,0.4l-3.8-2.9c-1-0.8-1.2-2.3-0.4-3.4l0.4-0.6
			c0.8-1.1,2.3-1.3,3.4-0.4l3.8,2.9C108.5,166.5,108.7,168,107.8,169z"/>
		<path class="st6" d="M100.1,165.4c-0.6-0.7-2.1-2.3-2-4.2c0-0.4,0.4-0.6,0.7-0.4c0.6,0.6,1.8,0.7,2.5,1.6c0.8,0.9-0.1,2.3-0.6,2.9
			C100.5,165.6,100.3,165.6,100.1,165.4z"/>
		<path class="st6" d="M111.2,151.6c0-0.7-0.2-2.4-1.1-3.2c-0.2-0.2-0.5,0-0.5,0.3c0,0.7-0.6,1.4-0.5,2.3c0.1,0.9,1.3,1,1.8,0.9
			C111,152,111.2,151.8,111.2,151.6z"/>
		<path class="st6" d="M43,218.9c0.3,0.7,1.2,2.1,2.4,2.4c0.3,0.1,0.5-0.2,0.4-0.4c-0.3-0.6-0.1-1.5-0.6-2.3
			c-0.5-0.8-1.6-0.3-2.1-0.1C43,218.6,42.9,218.8,43,218.9z"/>
		<path class="st6" d="M45.5,213.4c0.3,0.7,1.2,2.1,2.4,2.4c0.3,0.1,0.5-0.2,0.4-0.4c-0.3-0.6-0.1-1.5-0.6-2.3
			c-0.5-0.8-1.6-0.3-2.1-0.1C45.5,213,45.5,213.2,45.5,213.4z"/>
		<path class="st6" d="M119,151.9c0-0.7,0-2.4-0.8-3.3c-0.2-0.2-0.5-0.1-0.6,0.2c-0.1,0.7-0.7,1.4-0.7,2.3c0,0.9,1.2,1.1,1.8,1.1
			C118.8,152.2,118.9,152.1,119,151.9z"/>
		<path class="st6" d="M121.2,160.1c0.6-0.4,1.9-1.5,2.1-2.8c0-0.3-0.3-0.5-0.5-0.3c-0.6,0.3-1.5,0.3-2.3,0.9
			c-0.8,0.6-0.2,1.6,0.2,2.1C120.9,160.2,121.1,160.2,121.2,160.1z"/>
		<path class="st7" d="M115.5,161.5l-0.9-0.3c-1.3-0.4-1.9-1.8-1.6-3l1.6-5.5c0.4-1.3,1.7-1.9,2.9-1.6l0.9,0.3
			c1.3,0.4,1.9,1.8,1.6,3l-1.6,5.5C118,161.1,116.7,161.9,115.5,161.5z"/>
		<path class="st7" d="M118.4,163.8l-0.7-0.7c-0.9-0.9-0.9-2.4,0-3.4l3.9-4c0.9-0.9,2.4-0.9,3.4,0l0.7,0.7c0.9,0.9,0.9,2.4,0,3.4
			l-3.9,4C120.8,164.7,119.3,164.7,118.4,163.8z"/>
		<path class="st16" d="M110.4,161.6h-1c-1.3-0.1-2.3-1.2-2.3-2.5l0.1-5.6c0-1.3,1.1-2.3,2.4-2.3h1c1.3,0.1,2.3,1.2,2.3,2.5
			l-0.1,5.6C112.8,160.6,111.7,161.7,110.4,161.6z"/>
		<path class="st7" d="M110.4,161.6h-1c-1.3-0.1-2.3-1.2-2.3-2.5l0.1-5.6c0-1.3,1.1-2.3,2.4-2.3h1c1.3,0.1,2.3,1.2,2.3,2.5l-0.1,5.6
			C112.8,160.6,111.7,161.7,110.4,161.6z"/>
		<path class="st5" d="M44.5,219.2l-0.9,0.3c-1.3,0.3-2.6-0.5-2.9-1.8l-1.3-5.5c-0.3-1.3,0.5-2.6,1.8-2.9l0.9-0.3
			c1.3-0.3,2.6,0.5,2.9,1.8l1.3,5.5C46.6,217.6,45.8,218.9,44.5,219.2z"/>
		<path class="st9" d="M108.3,160.2c-3.8,2.4-4,11.3-2.9,13.8s11.9,4.3,13.3,2.5c1.3-1.8,2.6-7.3,2-11.6
			C120.3,160.7,112.3,157.6,108.3,160.2z"/>
		<path class="st7" d="M45.5,209.9c1.8-2.9,1-10.3,0.1-12.2c-0.9-1.8-7.2-1-7.8,0.8c-0.6,1.8-0.7,6.6,0.2,10.1
			C38.7,212,43.4,212.8,45.5,209.9z"/>
		
			<ellipse transform="matrix(0.2573 -0.9663 0.9663 0.2573 -79.4699 234.3949)" class="st8" cx="112.8" cy="168.9" rx="5" ry="3.7"/>
		<path class="st17" d="M119.6,165.3"/>
		<path class="st9" d="M47,213.4l-0.7,0.2c-1.3,0.4-2.6-0.3-2.9-1.6l-1.3-4.6c-0.3-1.3,0.3-2.6,1.7-3l0.7-0.2
			c1.3-0.4,2.6,0.3,2.9,1.6l1.3,4.6C49,211.7,48.2,213.1,47,213.4z"/>
		<path class="st18" d="M111.9,156.4c0,0.2-3.9,0-3.9-0.2c0-0.2,0.9-0.3,2-0.3C111.1,156.1,111.9,156.2,111.9,156.4z"/>
		<path class="st18" d="M118.4,157.3c-0.1,0.2-4.1-1.1-4-1.3c0.1-0.2,1-0.1,2.1,0.3S118.5,157,118.4,157.3z"/>
		<path class="st18" d="M123.6,161c-0.1,0.2-3.1-2.3-3-2.5c0.1-0.2,0.9,0.3,1.7,1C123.2,160.2,123.8,160.9,123.6,161z"/>
		<path class="st7" d="M93.8,235.7L93.8,235.7c-2.4,0-4.4-1.9-4.4-4.4v-4.7c0-2.4,1.9-4.4,4.4-4.4l0,0c2.4,0,4.4,1.9,4.4,4.4v4.7
			C98.2,233.8,96.1,235.7,93.8,235.7z"/>
		<path class="st18" d="M96.1,226.9c0,0.2-4.4,0.1-4.4-0.1s1-0.3,2.3-0.3C95.1,226.6,96.1,226.7,96.1,226.9z"/>
		<path class="st18" d="M91.3,230.3c0.6-0.9,3.9-1,4.5,0c0.6,1-1.5,4.5-2.2,4.5C93,234.9,90.9,231,91.3,230.3z"/>
		<path class="st7" d="M78.7,235.7L78.7,235.7c-2.4,0-4.4-1.9-4.4-4.4v-4.7c0-2.4,1.9-4.4,4.4-4.4l0,0c2.4,0,4.4,1.9,4.4,4.4v4.7
			C83.1,233.8,81,235.7,78.7,235.7z"/>
		<path class="st18" d="M81,226.9c0,0.2-4.4,0.1-4.4-0.1c0-0.2,1-0.3,2.3-0.3C80,226.6,81,226.7,81,226.9z"/>
		<path class="st18" d="M76.2,230.3c0.6-0.9,3.9-1,4.5,0c0.6,1-1.5,4.5-2.2,4.5S75.8,231,76.2,230.3z"/>
		<path class="st9" d="M86,235.7L86,235.7c-2.4,0-4.4-1.9-4.4-4.4v-5.5c0-2.4,1.9-4.4,4.4-4.4l0,0c2.4,0,4.4,1.9,4.4,4.4v5.5
			C90.4,233.8,88.4,235.7,86,235.7z"/>
		<path class="st18" d="M88.3,226.9c0,0.2-4.4,0.1-4.4-0.1c0-0.2,1-0.3,2.3-0.3C87.3,226.6,88.3,226.7,88.3,226.9z"/>
		<path class="st18" d="M83.5,230.3c0.6-0.9,3.9-1,4.5,0c0.6,1-1.5,4.5-2.2,4.5C85.2,234.9,83.1,231,83.5,230.3z"/>
		<path class="st7" d="M64.5,235.7L64.5,235.7c-2.4,0-4.4-1.9-4.4-4.4v-4.7c0-2.4,1.9-4.4,4.4-4.4l0,0c2.4,0,4.4,1.9,4.4,4.4v4.7
			C68.9,233.8,66.9,235.7,64.5,235.7z"/>
		<path class="st18" d="M66.9,226.9c0,0.2-4.4,0.1-4.4-0.1c0-0.2,1-0.3,2.3-0.3C65.9,226.6,66.9,226.7,66.9,226.9z"/>
		<path class="st18" d="M62,230.3c0.6-0.9,3.9-1,4.5,0c0.6,1-1.5,4.5-2.2,4.5S61.6,231,62,230.3z"/>
		<path class="st7" d="M49.4,235.7L49.4,235.7c-2.4,0-4.4-1.9-4.4-4.4v-4.7c0-2.4,1.9-4.4,4.4-4.4l0,0c2.4,0,4.4,1.9,4.4,4.4v4.7
			C53.8,233.8,51.8,235.7,49.4,235.7z"/>
		<path class="st18" d="M51.8,226.9c0,0.2-4.4,0.1-4.4-0.1s1-0.3,2.3-0.3C50.7,226.6,51.8,226.7,51.8,226.9z"/>
		<path class="st18" d="M46.9,230.3c0.6-0.9,3.9-1,4.5,0c0.6,1-1.5,4.5-2.2,4.5S46.5,231,46.9,230.3z"/>
		<path class="st9" d="M56.8,235.7L56.8,235.7c-2.4,0-4.4-1.9-4.4-4.4v-5.5c0-2.4,1.9-4.4,4.4-4.4l0,0c2.4,0,4.4,1.9,4.4,4.4v5.5
			C61.2,233.8,59.2,235.7,56.8,235.7z"/>
		<path class="st18" d="M59.1,226.9c0,0.2-4.4,0.1-4.4-0.1s1-0.3,2.3-0.3C58.1,226.6,59.1,226.7,59.1,226.9z"/>
		<path class="st18" d="M54.3,230.3c0.6-0.9,3.9-1,4.5,0c0.6,1-1.5,4.5-2.2,4.5C56,234.9,53.9,231,54.3,230.3z"/>
		<path class="st4" d="M110.9,191.2"/>
		<path class="st19" d="M130.1,177.1c-7,6.4-13.1,11.4-13.3,13.3c-0.2,1.8,2.9,5,4.4,4.2C122.9,193.7,130.1,177.1,130.1,177.1"/>
	</g>
	<path d="M74.5,34.7c-78.4-0.4-53.5,204.4-53.5,204.4h105.6C126.7,239.1,157.7,35.1,74.5,34.7z M122.1,235H25.8
		c0,0-22.7-196.5,48.8-196.1C150.5,39.2,122.1,235,122.1,235z"/>
</g>
<g id="Layer_2">
	<path class="st20" d="M12,245.5H138c2.6,0,4.7,2.1,4.7,4.7v9.5c0,2.6-2.1,4.7-4.7,4.7H12c-2.6,0-4.7-2.1-4.7-4.7v-9.5
		C7.3,247.6,9.4,245.5,12,245.5z"/>
	<path class="st21" d="M75,20.9L75,20.9c-0.1,0-0.2,0-0.3,0C74.8,20.9,74.9,20.9,75,20.9z"/>
	<path class="st21" d="M74.7,21c-0.1,0-0.2,0-0.3,0v0C74.6,20.9,74.7,20.9,74.7,21z"/>
	<path class="st20" d="M60.4,275.4h29.2c0.7,0,1.2,0.5,1.2,1.2v0.7c0,0.7-0.5,1.2-1.2,1.2H60.4c-0.7,0-1.2-0.5-1.2-1.2v-0.7
		C59.2,275.9,59.8,275.4,60.4,275.4z"/>
	<path class="st20" d="M58.6,281.6h32.2c0.7,0,1.2,0.5,1.2,1.2v0.7c0,0.7-0.5,1.2-1.2,1.2H58.6c-0.7,0-1.2-0.5-1.2-1.2v-0.7
		C57.4,282.1,57.9,281.6,58.6,281.6z"/>
	<path class="st20" d="M62.4,269.2h25.3c0.7,0,1.2,0.5,1.2,1.2v0.7c0,0.7-0.5,1.2-1.2,1.2H62.4c-0.7,0-1.2-0.5-1.2-1.2v-0.7
		C61.2,269.7,61.7,269.2,62.4,269.2z"/>
	<path class="st20" d="M17.4,275.4h29.2c0.7,0,1.2,0.5,1.2,1.2v0.7c0,0.7-0.5,1.2-1.2,1.2H17.4c-0.7,0-1.2-0.5-1.2-1.2v-0.7
		C16.2,275.9,16.8,275.4,17.4,275.4z"/>
	<path class="st20" d="M15.6,281.6h32.2c0.7,0,1.2,0.5,1.2,1.2v0.7c0,0.7-0.5,1.2-1.2,1.2H15.6c-0.7,0-1.2-0.5-1.2-1.2v-0.7
		C14.4,282.1,14.9,281.6,15.6,281.6z"/>
	<path class="st20" d="M19.4,269.2h25.3c0.7,0,1.2,0.5,1.2,1.2v0.7c0,0.7-0.5,1.2-1.2,1.2H19.4c-0.7,0-1.2-0.5-1.2-1.2v-0.7
		C18.2,269.7,18.7,269.2,19.4,269.2z"/>
	<path class="st20" d="M106,275.4h29.2c0.7,0,1.2,0.5,1.2,1.2v0.7c0,0.7-0.5,1.2-1.2,1.2H106c-0.7,0-1.2-0.5-1.2-1.2v-0.7
		C104.8,275.9,105.4,275.4,106,275.4z"/>
	<path class="st20" d="M104.2,281.6h32.2c0.7,0,1.2,0.5,1.2,1.2v0.7c0,0.7-0.5,1.2-1.2,1.2h-32.2c-0.7,0-1.2-0.5-1.2-1.2v-0.7
		C103,282.1,103.5,281.6,104.2,281.6z"/>
	<path class="st20" d="M108,269.2h25.3c0.7,0,1.2,0.5,1.2,1.2v0.7c0,0.7-0.5,1.2-1.2,1.2H108c-0.7,0-1.2-0.5-1.2-1.2v-0.7
		C106.8,269.7,107.3,269.2,108,269.2z"/>
</g>
<g id="Layer_3">
</g>
</svg>
