<?xml version="1.0" encoding="utf-8"?>
<!-- Generator: Adobe Illustrator 23.0.1, SVG Export Plug-In . SVG Version: 6.00 Build 0)  -->
<svg version="1.1" xmlns="http://www.w3.org/2000/svg" xmlns:xlink="http://www.w3.org/1999/xlink" x="0px" y="0px"
	 viewBox="0 0 150 300" style="enable-background:new 0 0 150 300;" xml:space="preserve">
<style type="text/css">
	.st0{fill:#2E2E30;}
	.st1{fill:#E6E6E6;stroke:#000000;stroke-miterlimit:10;}
	.st2{fill:#4D4D4D;}
	.st3{fill:#434345;}
	.st4{fill:#1A170C;}
</style>
<g id="Rocket_ship">
	<path class="st0" d="M73.4,216l-18.5,71.2c-0.4,1.4,0.7,2.8,2.1,2.8h37c1.4,0,2.5-1.4,2.1-2.8L77.6,216
		C77.1,213.8,73.9,213.8,73.4,216z"/>
	<path class="st0" d="M118.2,215.9l-18.5,71.2c-0.4,1.4,0.7,2.8,2.1,2.8h37c1.4,0,2.5-1.4,2.1-2.8l-18.5-71.2
		C121.9,213.7,118.8,213.7,118.2,215.9z"/>
	<path class="st0" d="M29.6,215.9l-18.5,71.2c-0.4,1.4,0.7,2.8,2.1,2.8h37c1.4,0,2.5-1.4,2.1-2.8l-18.5-71.2
		C33.3,213.7,30.2,213.7,29.6,215.9z"/>
	<g>
		<path class="st1" d="M75,17.5c-24.1,0-65,46.9-65,94.9s0,140.6,0,140.6h65"/>
		<path class="st1" d="M75,17.5c24.1,0,65,46.9,65,94.9s0,140.6,0,140.6H75"/>
	</g>
	<path class="st2" d="M25.7,235H122c0,0,28.3-195.8-47.6-196.1C2.9,38.5,25.7,235,25.7,235z"/>
	<path d="M74.5,34.7c-78.4-0.4-53.5,204.4-53.5,204.4h105.6C126.7,239.1,157.7,35.1,74.5,34.7z M122.1,235H25.8
		c0,0-22.7-196.5,48.8-196.1C150.5,39.2,122.1,235,122.1,235z"/>
</g>
<g id="Layer_2">
	<path class="st3" d="M12,245.5H138c2.6,0,4.7,2.1,4.7,4.7v9.5c0,2.6-2.1,4.7-4.7,4.7H12c-2.6,0-4.7-2.1-4.7-4.7v-9.5
		C7.3,247.6,9.4,245.5,12,245.5z"/>
	<path class="st4" d="M75,20.9L75,20.9c-0.1,0-0.2,0-0.3,0C74.8,20.9,74.9,20.9,75,20.9z"/>
	<path class="st4" d="M74.7,21c-0.1,0-0.2,0-0.3,0v0C74.6,20.9,74.7,20.9,74.7,21z"/>
	<path class="st3" d="M60.4,275.4h29.2c0.7,0,1.2,0.5,1.2,1.2v0.7c0,0.7-0.5,1.2-1.2,1.2H60.4c-0.7,0-1.2-0.5-1.2-1.2v-0.7
		C59.2,275.9,59.8,275.4,60.4,275.4z"/>
	<path class="st3" d="M58.6,281.6h32.2c0.7,0,1.2,0.5,1.2,1.2v0.7c0,0.7-0.5,1.2-1.2,1.2H58.6c-0.7,0-1.2-0.5-1.2-1.2v-0.7
		C57.4,282.1,57.9,281.6,58.6,281.6z"/>
	<path class="st3" d="M62.4,269.2h25.3c0.7,0,1.2,0.5,1.2,1.2v0.7c0,0.7-0.5,1.2-1.2,1.2H62.4c-0.7,0-1.2-0.5-1.2-1.2v-0.7
		C61.2,269.7,61.7,269.2,62.4,269.2z"/>
	<path class="st3" d="M17.4,275.4h29.2c0.7,0,1.2,0.5,1.2,1.2v0.7c0,0.7-0.5,1.2-1.2,1.2H17.4c-0.7,0-1.2-0.5-1.2-1.2v-0.7
		C16.2,275.9,16.8,275.4,17.4,275.4z"/>
	<path class="st3" d="M15.6,281.6h32.2c0.7,0,1.2,0.5,1.2,1.2v0.7c0,0.7-0.5,1.2-1.2,1.2H15.6c-0.7,0-1.2-0.5-1.2-1.2v-0.7
		C14.4,282.1,14.9,281.6,15.6,281.6z"/>
	<path class="st3" d="M19.4,269.2h25.3c0.7,0,1.2,0.5,1.2,1.2v0.7c0,0.7-0.5,1.2-1.2,1.2H19.4c-0.7,0-1.2-0.5-1.2-1.2v-0.7
		C18.2,269.7,18.7,269.2,19.4,269.2z"/>
	<path class="st3" d="M106,275.4h29.2c0.7,0,1.2,0.5,1.2,1.2v0.7c0,0.7-0.5,1.2-1.2,1.2H106c-0.7,0-1.2-0.5-1.2-1.2v-0.7
		C104.8,275.9,105.4,275.4,106,275.4z"/>
	<path class="st3" d="M104.2,281.6h32.2c0.7,0,1.2,0.5,1.2,1.2v0.7c0,0.7-0.5,1.2-1.2,1.2h-32.2c-0.7,0-1.2-0.5-1.2-1.2v-0.7
		C103,282.1,103.5,281.6,104.2,281.6z"/>
	<path class="st3" d="M108,269.2h25.3c0.7,0,1.2,0.5,1.2,1.2v0.7c0,0.7-0.5,1.2-1.2,1.2H108c-0.7,0-1.2-0.5-1.2-1.2v-0.7
		C106.8,269.7,107.3,269.2,108,269.2z"/>
</g>
<g id="Layer_3">
</g>
</svg>
