<?xml version="1.0" encoding="utf-8"?>
<!-- Generator: Adobe Illustrator 23.0.1, SVG Export Plug-In . SVG Version: 6.00 Build 0)  -->
<svg version="1.1" xmlns="http://www.w3.org/2000/svg" xmlns:xlink="http://www.w3.org/1999/xlink" x="0px" y="0px"
	 viewBox="0 0 150 300" style="enable-background:new 0 0 150 300;" xml:space="preserve">
<style type="text/css">
	.st0{fill:#2E2E30;}
	.st1{fill:#E6E6E6;stroke:#000000;stroke-miterlimit:10;}
	.st2{fill:#D1E7C2;}
	.st3{fill:#7B8A76;}
	.st4{fill:#00B1BE;}
	.st5{fill:none;stroke:#999999;stroke-miterlimit:10;}
	.st6{fill:url(#SVGID_1_);}
	.st7{fill:#626363;}
	.st8{fill:#999999;}
	.st9{fill:#E5C500;}
	.st10{fill:#434345;}
	.st11{fill:#1A170C;}
</style>
<g id="Rocket_ship">
	<path class="st0" d="M73.4,216l-18.5,71.2c-0.4,1.4,0.7,2.8,2.1,2.8h37c1.4,0,2.5-1.4,2.1-2.8L77.6,216
		C77.1,213.8,73.9,213.8,73.4,216z"/>
	<path class="st0" d="M118.2,215.9l-18.5,71.2c-0.4,1.4,0.7,2.8,2.1,2.8h37c1.4,0,2.5-1.4,2.1-2.8l-18.5-71.2
		C121.9,213.7,118.8,213.7,118.2,215.9z"/>
	<path class="st0" d="M29.6,215.9l-18.5,71.2c-0.4,1.4,0.7,2.8,2.1,2.8h37c1.4,0,2.5-1.4,2.1-2.8l-18.5-71.2
		C33.3,213.7,30.2,213.7,29.6,215.9z"/>
	<g>
		<path class="st1" d="M75,17.5c-24.1,0-65,46.9-65,94.9s0,140.6,0,140.6h65"/>
		<path class="st1" d="M75,17.5c24.1,0,65,46.9,65,94.9s0,140.6,0,140.6H75"/>
	</g>
	<path class="st2" d="M84.6,197.6h30.3c1.2,0,2.1-0.9,2.1-2.1v-19.6c0-1.2-0.9-2.1-2.1-2.1H84.6c-1.2,0-2.1,0.9-2.1,2.1v19.6
		C82.5,196.7,83.5,197.6,84.6,197.6z"/>
	<path class="st3" d="M118.2,176.3v19.6c0,1.2-0.9,2.1-2.1,2.1H85.9c-0.8,0-1.5-0.4-1.8-1c0.2,0.1,0.4,0.1,0.6,0.1h30.3
		c1.2,0,2.1-0.9,2.1-2.1v-19.6c0-0.4-0.1-0.8-0.3-1.1C117.6,174.5,118.2,175.3,118.2,176.3z"/>
	<rect x="86.4" y="176.7" class="st4" width="11.4" height="1.9"/>
	<rect x="86.4" y="184.1" class="st4" width="8" height="1.9"/>
	<rect x="86.4" y="180.4" class="st4" width="11.4" height="1.9"/>
	
		<rect x="107.3" y="181.5" transform="matrix(-1.836970e-16 1 -1 -1.836970e-16 295.4478 69.4179)" class="st4" width="11.4" height="1.9"/>
	<rect x="109.2" y="178.6" class="st4" width="4.7" height="1.9"/>
	<rect x="109.2" y="176.7" class="st4" width="4.7" height="1.9"/>
	<rect x="86.4" y="187.8" class="st4" width="8" height="1.9"/>
	<path class="st5" d="M21.1,239.1h105.6c0,0,31.1-204-52.1-204.4C-3.9,34.4,21.1,239.1,21.1,239.1z"/>
</g>
<g id="Layer_2">
	<linearGradient id="SVGID_1_" gradientUnits="userSpaceOnUse" x1="25.12" y1="105.2716" x2="124.88" y2="105.2716">
		<stop  offset="0" style="stop-color:#FF7300"/>
		<stop  offset="0.2946" style="stop-color:#F97C01"/>
		<stop  offset="0.7829" style="stop-color:#EA9602"/>
		<stop  offset="0.9186" style="stop-color:#E59E03"/>
		<stop  offset="1" style="stop-color:#E5C500"/>
	</linearGradient>
	<path class="st6" d="M124.9,144c0,6-0.3,11.8-0.8,17.5H26c-0.6-5.7-0.8-11.5-0.8-17.5c0-52.5,22.3-95,49.9-95S124.9,91.6,124.9,144
		z"/>
	<path class="st7" d="M123.6,167.1H26.4c-0.8,0-1.4-0.6-1.4-1.4v-4c0-0.8,0.6-1.4,1.4-1.4h97.1c0.8,0,1.4,0.6,1.4,1.4v4
		C125,166.5,124.3,167.1,123.6,167.1z"/>
	<path class="st8" d="M123.6,165.3H26.5c-0.8,0-1.4-0.6-1.4-1.4v-4c0-0.8,0.6-1.4,1.4-1.4h97.1c0.8,0,1.4,0.6,1.4,1.4v4
		C125,164.7,124.4,165.3,123.6,165.3z"/>
	<path class="st9" d="M100.7,74.5c3.2,5.9,4.2,11.6,2.2,12.6c-2,1.1-13.5-20.3-11.6-21.4C93.3,64.7,97.5,68.6,100.7,74.5z"/>
	<path class="st10" d="M12,245.5H138c2.6,0,4.7,2.1,4.7,4.7v9.5c0,2.6-2.1,4.7-4.7,4.7H12c-2.6,0-4.7-2.1-4.7-4.7v-9.5
		C7.3,247.6,9.4,245.5,12,245.5z"/>
	<path class="st11" d="M75,20.9L75,20.9c-0.1,0-0.2,0-0.3,0C74.8,20.9,74.9,20.9,75,20.9z"/>
	<path class="st11" d="M74.7,21c-0.1,0-0.2,0-0.3,0v0C74.6,20.9,74.7,20.9,74.7,21z"/>
	<circle cx="74.8" cy="161.9" r="1.5"/>
	<circle cx="50.2" cy="161.9" r="1.5"/>
	<circle cx="56.3" cy="161.9" r="1.5"/>
	<circle cx="99.4" cy="161.9" r="1.5"/>
	<circle cx="31.7" cy="161.9" r="1.5"/>
	<circle cx="37.9" cy="161.9" r="1.5"/>
	<circle cx="44" cy="161.9" r="1.5"/>
	<circle cx="87.1" cy="161.9" r="1.5"/>
	<circle cx="81" cy="161.9" r="1.5"/>
	<circle cx="93.3" cy="161.9" r="1.5"/>
	<circle cx="111.6" cy="161.9" r="1.5"/>
	<circle cx="117.7" cy="161.9" r="1.5"/>
	<circle cx="105.6" cy="161.9" r="1.5"/>
	<circle cx="62.5" cy="161.9" r="1.5"/>
	<circle cx="68.7" cy="161.9" r="1.5"/>
	<path class="st7" d="M51.6,180.5H33.4c-1.2,0-2.1-0.9-2.1-2.1v-1.5c0-1.2,0.9-2.1,2.1-2.1h18.2c1.2,0,2.1,0.9,2.1,2.1v1.5
		C53.7,179.6,52.7,180.5,51.6,180.5z"/>
	<path class="st8" d="M51,179.6H32.8c-1.2,0-2.1-0.9-2.1-2.1V176c0-1.2,0.9-2.1,2.1-2.1H51c1.2,0,2.1,0.9,2.1,2.1v1.5
		C53.1,178.6,52.2,179.6,51,179.6z"/>
	<path class="st10" d="M60.4,275.4h29.2c0.7,0,1.2,0.5,1.2,1.2v0.7c0,0.7-0.5,1.2-1.2,1.2H60.4c-0.7,0-1.2-0.5-1.2-1.2v-0.7
		C59.2,275.9,59.8,275.4,60.4,275.4z"/>
	<path class="st10" d="M58.6,281.6h32.2c0.7,0,1.2,0.5,1.2,1.2v0.7c0,0.7-0.5,1.2-1.2,1.2H58.6c-0.7,0-1.2-0.5-1.2-1.2v-0.7
		C57.4,282.1,57.9,281.6,58.6,281.6z"/>
	<path class="st10" d="M62.4,269.2h25.3c0.7,0,1.2,0.5,1.2,1.2v0.7c0,0.7-0.5,1.2-1.2,1.2H62.4c-0.7,0-1.2-0.5-1.2-1.2v-0.7
		C61.2,269.7,61.7,269.2,62.4,269.2z"/>
	<path class="st10" d="M17.4,275.4h29.2c0.7,0,1.2,0.5,1.2,1.2v0.7c0,0.7-0.5,1.2-1.2,1.2H17.4c-0.7,0-1.2-0.5-1.2-1.2v-0.7
		C16.2,275.9,16.8,275.4,17.4,275.4z"/>
	<path class="st10" d="M15.6,281.6h32.2c0.7,0,1.2,0.5,1.2,1.2v0.7c0,0.7-0.5,1.2-1.2,1.2H15.6c-0.7,0-1.2-0.5-1.2-1.2v-0.7
		C14.4,282.1,14.9,281.6,15.6,281.6z"/>
	<path class="st10" d="M19.4,269.2h25.3c0.7,0,1.2,0.5,1.2,1.2v0.7c0,0.7-0.5,1.2-1.2,1.2H19.4c-0.7,0-1.2-0.5-1.2-1.2v-0.7
		C18.2,269.7,18.7,269.2,19.4,269.2z"/>
	<path class="st10" d="M106,275.4h29.2c0.7,0,1.2,0.5,1.2,1.2v0.7c0,0.7-0.5,1.2-1.2,1.2H106c-0.7,0-1.2-0.5-1.2-1.2v-0.7
		C104.8,275.9,105.4,275.4,106,275.4z"/>
	<path class="st10" d="M104.2,281.6h32.2c0.7,0,1.2,0.5,1.2,1.2v0.7c0,0.7-0.5,1.2-1.2,1.2h-32.2c-0.7,0-1.2-0.5-1.2-1.2v-0.7
		C103,282.1,103.5,281.6,104.2,281.6z"/>
	<path class="st10" d="M108,269.2h25.3c0.7,0,1.2,0.5,1.2,1.2v0.7c0,0.7-0.5,1.2-1.2,1.2H108c-0.7,0-1.2-0.5-1.2-1.2v-0.7
		C106.8,269.7,107.3,269.2,108,269.2z"/>
</g>
</svg>
